<svg xmlns="http://www.w3.org/2000/svg" viewBox="0 0 24 24" fill="none" aria-hidden="true">
  <!-- Amazon "a" mark for light UI (transparent bg) -->
  <path
    fill="#0f172a"
    d="M12.1 5.2c-2.35 0-3.9 1.35-3.9 3.35 0 1.55.85 2.55 2.55 3.15l.95.35c1.1.4 1.45.7 1.45 1.25 0 .7-.65 1.2-1.7 1.2-1.15 0-2.15-.4-3.05-1.05l-.55 1.55c1.1.75 2.45 1.2 3.75 1.2 2.45 0 4.05-1.3 4.05-3.35 0-1.6-.9-2.55-2.7-3.2l-.95-.35c-.95-.35-1.3-.65-1.3-1.2 0-.6.55-1.05 1.45-1.05.95 0 1.85.35 2.55.8l.6-1.5c-.9-.55-2.05-.9-3.25-.9z"
  />
  <path
    fill="#FF9900"
    d="M5.2 17.1c2.4 1.55 5.35 2.35 8.15 2.35 2.45 0 4.85-.6 6.85-1.85.35-.2.15-.55-.25-.4-2.65 1.05-5.55.85-8.2-.15-2.05-.8-3.85-2.05-5.35-3.55-.25-.25-.55.05-.3.35.35.4.7.8 1.1 1.15z"
  />
  <path
    fill="#FF9900"
    d="M18.85 15.85c.15-.35.75-.15.75.25v2.55c0 .35-.4.55-.65.35-1.05-.85-1.25-2.35-.55-3.25.1-.1.3-.05.45.1z"
  />
</svg>
